<svg xmlns="http://www.w3.org/2000/svg" version="1.1" xmlns:xlink="http://www.w3.org/1999/xlink" xmlns:svgjs="http://svgjs.com/svgjs" width="1440" height="564" preserveAspectRatio="none" viewBox="0 0 1440 564"><g mask="url(&quot;#SvgjsMask1692&quot;)" fill="none"><rect width="1440" height="564" x="0" y="0" fill="url(#SvgjsLinearGradient1693)"></rect><path d="M1488 564L0 564 L0 371.77Q14.87 314.64, 72 329.52Q102.62 288.13, 144 318.75Q185.22 239.97, 264 281.18Q332.25 277.44, 336 345.69Q353.59 291.28, 408 308.87Q437.67 266.54, 480 296.21Q506.27 250.48, 552 276.75Q610.41 263.16, 624 321.57Q646.16 271.74, 696 293.9Q740.7 266.6, 768 311.3Q831.24 302.54, 840 365.78Q843.01 296.79, 912 299.81Q979.35 247.16, 1032 314.51Q1109.41 271.92, 1152 349.33Q1198.41 323.74, 1224 370.15Q1241.99 268.14, 1344 286.13Q1385.54 255.67, 1416 297.21Q1461.62 270.83, 1488 316.45z" fill="rgba(4, 91, 134, 1)"></path><path d="M1512 564L0 564 L0 446.19Q32.92 407.11, 72 440.02Q86.81 382.82, 144 397.63Q168.98 350.61, 216 375.58Q298.66 338.24, 336 420.89Q408.22 373.11, 456 445.32Q470.44 387.76, 528 402.2Q576.36 378.56, 600 426.91Q628.55 335.47, 720 364.02Q787.83 311.85, 840 379.67Q901.61 369.28, 912 430.9Q955.25 402.15, 984 445.41Q989.56 378.97, 1056 384.53Q1085.3 341.82, 1128 371.12Q1178.56 349.68, 1200 400.24Q1230.77 359.01, 1272 389.79Q1344.09 341.88, 1392 413.96Q1463.92 365.88, 1512 437.81z" fill="rgba(2, 127, 190, 1)"></path><path d="M1464 564L0 564 L0 426.05Q88.37 394.42, 120 482.79Q170.3 461.09, 192 511.38Q192.7 440.08, 264 440.78Q298.65 403.43, 336 438.08Q387.46 369.54, 456 421.01Q513.67 406.68, 528 464.35Q557.62 421.97, 600 451.59Q671.46 403.05, 720 474.51Q802.62 437.13, 840 519.74Q854.38 414.13, 960 428.51Q1029.44 377.95, 1080 447.4Q1152.03 447.43, 1152 519.45Q1143.17 438.63, 1224 429.8Q1320 405.81, 1344 501.81Q1383.98 421.79, 1464 461.78z" fill="rgba(25, 163, 232, 1)"></path><path d="M1512 564L0 564 L0 508.27Q94.54 482.81, 120 577.35Q136.99 522.34, 192 539.32Q261.83 489.15, 312 558.98Q326.74 501.72, 384 516.46Q427.06 487.52, 456 530.57Q500.72 503.29, 528 548.01Q594.75 494.76, 648 561.52Q649.45 490.97, 720 492.41Q786.31 438.72, 840 505.02Q898.53 491.55, 912 550.07Q958.61 524.68, 984 571.3Q997.08 512.38, 1056 525.45Q1110.35 459.8, 1176 514.14Q1236.14 502.28, 1248 562.42Q1297.77 540.19, 1320 589.96Q1332.13 530.09, 1392 542.21Q1428.74 458.95, 1512 495.69z" fill="white"></path></g><defs><mask id="SvgjsMask1692"><rect width="1440" height="564" fill="#ffffff"></rect></mask><linearGradient x1="15.21%" y1="-38.83%" x2="84.79%" y2="138.83%" gradientUnits="userSpaceOnUse" id="SvgjsLinearGradient1693"><stop stop-color="#0e2a47" offset="0"></stop><stop stop-color="rgba(0, 104, 156, 1)" offset="1"></stop></linearGradient></defs></svg>